<mxfile host="app.diagrams.net" modified="2023-12-11T17:52:39.876Z" agent="Mozilla/5.0 (Windows NT 10.0; Win64; x64) AppleWebKit/537.36 (KHTML, like Gecko) Chrome/120.0.0.0 Safari/537.36" etag="pQtrFSE9APPQCLIVfDNh" version="22.1.7" type="device">
  <diagram name="Страница — 1" id="adpYtnFsUghynQ0sk9AH">
    <mxGraphModel dx="1827" dy="509" grid="1" gridSize="10" guides="1" tooltips="1" connect="1" arrows="1" fold="1" page="1" pageScale="1" pageWidth="827" pageHeight="1169" math="0" shadow="0">
      <root>
        <mxCell id="0" />
        <mxCell id="1" parent="0" />
        <mxCell id="8Lt88kE6l_gtZ_EHlqUN-9" style="edgeStyle=orthogonalEdgeStyle;rounded=0;orthogonalLoop=1;jettySize=auto;html=1;exitX=0.5;exitY=1;exitDx=0;exitDy=0;entryX=0.5;entryY=0;entryDx=0;entryDy=0;endArrow=none;endFill=0;" edge="1" parent="1" source="8Lt88kE6l_gtZ_EHlqUN-1" target="8Lt88kE6l_gtZ_EHlqUN-2">
          <mxGeometry relative="1" as="geometry" />
        </mxCell>
        <mxCell id="8Lt88kE6l_gtZ_EHlqUN-1" value="HAL_GPIO_EXTI_Callback(uint16_t GPIO_Pin)" style="ellipse;whiteSpace=wrap;html=1;" vertex="1" parent="1">
          <mxGeometry x="-590" y="20" width="270" height="80" as="geometry" />
        </mxCell>
        <mxCell id="8Lt88kE6l_gtZ_EHlqUN-10" style="edgeStyle=orthogonalEdgeStyle;rounded=0;orthogonalLoop=1;jettySize=auto;html=1;exitX=1;exitY=0.5;exitDx=0;exitDy=0;entryX=0.5;entryY=0;entryDx=0;entryDy=0;endArrow=none;endFill=0;" edge="1" parent="1" source="8Lt88kE6l_gtZ_EHlqUN-2" target="8Lt88kE6l_gtZ_EHlqUN-3">
          <mxGeometry relative="1" as="geometry" />
        </mxCell>
        <mxCell id="8Lt88kE6l_gtZ_EHlqUN-13" style="edgeStyle=orthogonalEdgeStyle;rounded=0;orthogonalLoop=1;jettySize=auto;html=1;exitX=0.5;exitY=1;exitDx=0;exitDy=0;entryX=0.5;entryY=0;entryDx=0;entryDy=0;endArrow=none;endFill=0;" edge="1" parent="1" source="8Lt88kE6l_gtZ_EHlqUN-2" target="8Lt88kE6l_gtZ_EHlqUN-6">
          <mxGeometry relative="1" as="geometry" />
        </mxCell>
        <mxCell id="8Lt88kE6l_gtZ_EHlqUN-2" value="GPIO_Pin == RESTART_BUTTON_Pin" style="rhombus;whiteSpace=wrap;html=1;" vertex="1" parent="1">
          <mxGeometry x="-567.5" y="140" width="225" height="80" as="geometry" />
        </mxCell>
        <mxCell id="8Lt88kE6l_gtZ_EHlqUN-11" style="edgeStyle=orthogonalEdgeStyle;rounded=0;orthogonalLoop=1;jettySize=auto;html=1;exitX=0.5;exitY=1;exitDx=0;exitDy=0;entryX=0.5;entryY=0;entryDx=0;entryDy=0;endArrow=none;endFill=0;" edge="1" parent="1" source="8Lt88kE6l_gtZ_EHlqUN-3" target="8Lt88kE6l_gtZ_EHlqUN-4">
          <mxGeometry relative="1" as="geometry" />
        </mxCell>
        <mxCell id="8Lt88kE6l_gtZ_EHlqUN-3" value="Вывод &quot;Program restart&quot;" style="shape=parallelogram;perimeter=parallelogramPerimeter;whiteSpace=wrap;html=1;fixedSize=1;" vertex="1" parent="1">
          <mxGeometry x="-260" y="220" width="120" height="60" as="geometry" />
        </mxCell>
        <mxCell id="8Lt88kE6l_gtZ_EHlqUN-12" style="edgeStyle=orthogonalEdgeStyle;rounded=0;orthogonalLoop=1;jettySize=auto;html=1;exitX=0.5;exitY=1;exitDx=0;exitDy=0;entryX=0.5;entryY=0;entryDx=0;entryDy=0;endArrow=none;endFill=0;" edge="1" parent="1" source="8Lt88kE6l_gtZ_EHlqUN-4" target="8Lt88kE6l_gtZ_EHlqUN-5">
          <mxGeometry relative="1" as="geometry" />
        </mxCell>
        <mxCell id="8Lt88kE6l_gtZ_EHlqUN-4" value="state_info-&gt;state_request = RESTART_INTENT;" style="rounded=0;whiteSpace=wrap;html=1;" vertex="1" parent="1">
          <mxGeometry x="-305" y="310" width="210" height="50" as="geometry" />
        </mxCell>
        <mxCell id="8Lt88kE6l_gtZ_EHlqUN-5" value="конец" style="ellipse;whiteSpace=wrap;html=1;" vertex="1" parent="1">
          <mxGeometry x="-260" y="390" width="120" height="40" as="geometry" />
        </mxCell>
        <mxCell id="8Lt88kE6l_gtZ_EHlqUN-14" style="edgeStyle=orthogonalEdgeStyle;rounded=0;orthogonalLoop=1;jettySize=auto;html=1;exitX=0;exitY=0.5;exitDx=0;exitDy=0;entryX=0.5;entryY=0;entryDx=0;entryDy=0;endArrow=none;endFill=0;" edge="1" parent="1" source="8Lt88kE6l_gtZ_EHlqUN-6" target="8Lt88kE6l_gtZ_EHlqUN-7">
          <mxGeometry relative="1" as="geometry" />
        </mxCell>
        <mxCell id="8Lt88kE6l_gtZ_EHlqUN-15" style="edgeStyle=orthogonalEdgeStyle;rounded=0;orthogonalLoop=1;jettySize=auto;html=1;exitX=0.5;exitY=1;exitDx=0;exitDy=0;entryX=0.5;entryY=0;entryDx=0;entryDy=0;endArrow=none;endFill=0;" edge="1" parent="1" source="8Lt88kE6l_gtZ_EHlqUN-6" target="8Lt88kE6l_gtZ_EHlqUN-8">
          <mxGeometry relative="1" as="geometry" />
        </mxCell>
        <mxCell id="8Lt88kE6l_gtZ_EHlqUN-6" value="state_info-&gt;current_state != CHOOSE_ALGO" style="rhombus;whiteSpace=wrap;html=1;" vertex="1" parent="1">
          <mxGeometry x="-562.5" y="290" width="215" height="80" as="geometry" />
        </mxCell>
        <mxCell id="8Lt88kE6l_gtZ_EHlqUN-7" value="конец" style="ellipse;whiteSpace=wrap;html=1;" vertex="1" parent="1">
          <mxGeometry x="-780" y="390" width="120" height="40" as="geometry" />
        </mxCell>
        <mxCell id="8Lt88kE6l_gtZ_EHlqUN-22" value="NEXT_ALGO_BUTTON_Pin" style="edgeStyle=orthogonalEdgeStyle;rounded=0;orthogonalLoop=1;jettySize=auto;html=1;exitX=0;exitY=0.5;exitDx=0;exitDy=0;entryX=0.5;entryY=0;entryDx=0;entryDy=0;endArrow=none;endFill=0;" edge="1" parent="1" source="8Lt88kE6l_gtZ_EHlqUN-8" target="8Lt88kE6l_gtZ_EHlqUN-16">
          <mxGeometry relative="1" as="geometry" />
        </mxCell>
        <mxCell id="8Lt88kE6l_gtZ_EHlqUN-23" value="PREV_ALGO_BUTTON_Pin" style="edgeStyle=orthogonalEdgeStyle;rounded=0;orthogonalLoop=1;jettySize=auto;html=1;exitX=0;exitY=1;exitDx=0;exitDy=0;entryX=0.5;entryY=0;entryDx=0;entryDy=0;endArrow=none;endFill=0;" edge="1" parent="1" source="8Lt88kE6l_gtZ_EHlqUN-8" target="8Lt88kE6l_gtZ_EHlqUN-17">
          <mxGeometry x="0.4" y="-16" relative="1" as="geometry">
            <mxPoint x="11" y="-15" as="offset" />
          </mxGeometry>
        </mxCell>
        <mxCell id="8Lt88kE6l_gtZ_EHlqUN-24" value="SUBMIT_BUTTON_Pin" style="edgeStyle=orthogonalEdgeStyle;rounded=0;orthogonalLoop=1;jettySize=auto;html=1;exitX=1;exitY=1;exitDx=0;exitDy=0;entryX=0.5;entryY=0;entryDx=0;entryDy=0;endArrow=none;endFill=0;" edge="1" parent="1" source="8Lt88kE6l_gtZ_EHlqUN-8" target="8Lt88kE6l_gtZ_EHlqUN-18">
          <mxGeometry x="0.28" y="15" relative="1" as="geometry">
            <mxPoint as="offset" />
          </mxGeometry>
        </mxCell>
        <mxCell id="8Lt88kE6l_gtZ_EHlqUN-25" value="default" style="edgeStyle=orthogonalEdgeStyle;rounded=0;orthogonalLoop=1;jettySize=auto;html=1;exitX=1;exitY=0.5;exitDx=0;exitDy=0;entryX=0.5;entryY=0;entryDx=0;entryDy=0;endArrow=none;endFill=0;" edge="1" parent="1" source="8Lt88kE6l_gtZ_EHlqUN-8" target="8Lt88kE6l_gtZ_EHlqUN-20">
          <mxGeometry relative="1" as="geometry" />
        </mxCell>
        <mxCell id="8Lt88kE6l_gtZ_EHlqUN-8" value="GPIO_Pin" style="rhombus;whiteSpace=wrap;html=1;" vertex="1" parent="1">
          <mxGeometry x="-495" y="420" width="80" height="80" as="geometry" />
        </mxCell>
        <mxCell id="8Lt88kE6l_gtZ_EHlqUN-27" style="edgeStyle=orthogonalEdgeStyle;rounded=0;orthogonalLoop=1;jettySize=auto;html=1;exitX=0.5;exitY=1;exitDx=0;exitDy=0;entryX=0.5;entryY=0;entryDx=0;entryDy=0;endArrow=none;endFill=0;" edge="1" parent="1" source="8Lt88kE6l_gtZ_EHlqUN-16" target="8Lt88kE6l_gtZ_EHlqUN-21">
          <mxGeometry relative="1" as="geometry">
            <Array as="points">
              <mxPoint x="-750" y="820" />
              <mxPoint x="-455" y="820" />
            </Array>
          </mxGeometry>
        </mxCell>
        <mxCell id="8Lt88kE6l_gtZ_EHlqUN-16" value="Установка следующего алгоритма" style="rounded=0;whiteSpace=wrap;html=1;" vertex="1" parent="1">
          <mxGeometry x="-810" y="650" width="120" height="60" as="geometry" />
        </mxCell>
        <mxCell id="8Lt88kE6l_gtZ_EHlqUN-28" style="edgeStyle=orthogonalEdgeStyle;rounded=0;orthogonalLoop=1;jettySize=auto;html=1;exitX=0.5;exitY=1;exitDx=0;exitDy=0;entryX=0.5;entryY=0;entryDx=0;entryDy=0;endArrow=none;endFill=0;" edge="1" parent="1" source="8Lt88kE6l_gtZ_EHlqUN-17" target="8Lt88kE6l_gtZ_EHlqUN-21">
          <mxGeometry relative="1" as="geometry">
            <Array as="points">
              <mxPoint x="-555" y="820" />
              <mxPoint x="-455" y="820" />
            </Array>
          </mxGeometry>
        </mxCell>
        <mxCell id="8Lt88kE6l_gtZ_EHlqUN-17" value="Установка предыдущего алгоритма" style="rounded=0;whiteSpace=wrap;html=1;" vertex="1" parent="1">
          <mxGeometry x="-615" y="650" width="120" height="60" as="geometry" />
        </mxCell>
        <mxCell id="8Lt88kE6l_gtZ_EHlqUN-26" style="edgeStyle=orthogonalEdgeStyle;rounded=0;orthogonalLoop=1;jettySize=auto;html=1;exitX=0.5;exitY=1;exitDx=0;exitDy=0;entryX=0.5;entryY=0;entryDx=0;entryDy=0;endArrow=none;endFill=0;" edge="1" parent="1" source="8Lt88kE6l_gtZ_EHlqUN-18" target="8Lt88kE6l_gtZ_EHlqUN-19">
          <mxGeometry relative="1" as="geometry" />
        </mxCell>
        <mxCell id="8Lt88kE6l_gtZ_EHlqUN-18" value="Отмена получения ввода с ПЭВМ" style="rounded=0;whiteSpace=wrap;html=1;" vertex="1" parent="1">
          <mxGeometry x="-415" y="650" width="120" height="60" as="geometry" />
        </mxCell>
        <mxCell id="8Lt88kE6l_gtZ_EHlqUN-29" style="edgeStyle=orthogonalEdgeStyle;rounded=0;orthogonalLoop=1;jettySize=auto;html=1;exitX=0.5;exitY=1;exitDx=0;exitDy=0;entryX=0.5;entryY=0;entryDx=0;entryDy=0;endArrow=none;endFill=0;" edge="1" parent="1" source="8Lt88kE6l_gtZ_EHlqUN-19" target="8Lt88kE6l_gtZ_EHlqUN-21">
          <mxGeometry relative="1" as="geometry">
            <mxPoint x="-440" y="910" as="targetPoint" />
            <Array as="points">
              <mxPoint x="-355" y="820" />
              <mxPoint x="-455" y="820" />
            </Array>
          </mxGeometry>
        </mxCell>
        <mxCell id="8Lt88kE6l_gtZ_EHlqUN-19" value="state_info-&gt;state_request = ENTER_SUM;" style="rounded=0;whiteSpace=wrap;html=1;" vertex="1" parent="1">
          <mxGeometry x="-432.5" y="740" width="155" height="60" as="geometry" />
        </mxCell>
        <mxCell id="8Lt88kE6l_gtZ_EHlqUN-30" style="edgeStyle=orthogonalEdgeStyle;rounded=0;orthogonalLoop=1;jettySize=auto;html=1;exitX=0.5;exitY=1;exitDx=0;exitDy=0;entryX=0.5;entryY=0;entryDx=0;entryDy=0;endArrow=none;endFill=0;" edge="1" parent="1" source="8Lt88kE6l_gtZ_EHlqUN-20" target="8Lt88kE6l_gtZ_EHlqUN-21">
          <mxGeometry relative="1" as="geometry">
            <Array as="points">
              <mxPoint x="-112" y="820" />
              <mxPoint x="-455" y="820" />
            </Array>
          </mxGeometry>
        </mxCell>
        <mxCell id="8Lt88kE6l_gtZ_EHlqUN-20" value="вывод &quot;this shouldn&#39;t happen&quot;" style="shape=parallelogram;perimeter=parallelogramPerimeter;whiteSpace=wrap;html=1;fixedSize=1;" vertex="1" parent="1">
          <mxGeometry x="-215" y="650" width="205" height="60" as="geometry" />
        </mxCell>
        <mxCell id="8Lt88kE6l_gtZ_EHlqUN-21" value="конец" style="ellipse;whiteSpace=wrap;html=1;" vertex="1" parent="1">
          <mxGeometry x="-515" y="850" width="120" height="40" as="geometry" />
        </mxCell>
        <mxCell id="8Lt88kE6l_gtZ_EHlqUN-61" style="edgeStyle=orthogonalEdgeStyle;rounded=0;orthogonalLoop=1;jettySize=auto;html=1;exitX=0.5;exitY=1;exitDx=0;exitDy=0;entryX=0.5;entryY=0;entryDx=0;entryDy=0;endArrow=none;endFill=0;" edge="1" parent="1" source="8Lt88kE6l_gtZ_EHlqUN-62" target="8Lt88kE6l_gtZ_EHlqUN-65">
          <mxGeometry relative="1" as="geometry" />
        </mxCell>
        <mxCell id="8Lt88kE6l_gtZ_EHlqUN-62" value="HAL_UART_RxCpltCallback(UART_HandleTypeDef *huart)" style="ellipse;whiteSpace=wrap;html=1;" vertex="1" parent="1">
          <mxGeometry x="330" y="40" width="290" height="60" as="geometry" />
        </mxCell>
        <mxCell id="8Lt88kE6l_gtZ_EHlqUN-99" style="edgeStyle=orthogonalEdgeStyle;rounded=0;orthogonalLoop=1;jettySize=auto;html=1;exitX=0;exitY=0.5;exitDx=0;exitDy=0;entryX=0.5;entryY=0;entryDx=0;entryDy=0;endArrow=none;endFill=0;" edge="1" parent="1" source="8Lt88kE6l_gtZ_EHlqUN-65" target="8Lt88kE6l_gtZ_EHlqUN-91">
          <mxGeometry relative="1" as="geometry" />
        </mxCell>
        <mxCell id="8Lt88kE6l_gtZ_EHlqUN-103" style="edgeStyle=orthogonalEdgeStyle;rounded=0;orthogonalLoop=1;jettySize=auto;html=1;exitX=1;exitY=0.5;exitDx=0;exitDy=0;entryX=0.5;entryY=0;entryDx=0;entryDy=0;endArrow=none;endFill=0;" edge="1" parent="1" source="8Lt88kE6l_gtZ_EHlqUN-65" target="8Lt88kE6l_gtZ_EHlqUN-96">
          <mxGeometry relative="1" as="geometry" />
        </mxCell>
        <mxCell id="8Lt88kE6l_gtZ_EHlqUN-65" value="state_info-&gt;current_state == ENTER_SUM" style="rhombus;whiteSpace=wrap;html=1;" vertex="1" parent="1">
          <mxGeometry x="362.5" y="140" width="225" height="80" as="geometry" />
        </mxCell>
        <mxCell id="8Lt88kE6l_gtZ_EHlqUN-100" style="edgeStyle=orthogonalEdgeStyle;rounded=0;orthogonalLoop=1;jettySize=auto;html=1;exitX=0.5;exitY=1;exitDx=0;exitDy=0;entryX=0.5;entryY=0;entryDx=0;entryDy=0;endArrow=none;endFill=0;" edge="1" parent="1" source="8Lt88kE6l_gtZ_EHlqUN-91" target="8Lt88kE6l_gtZ_EHlqUN-93">
          <mxGeometry relative="1" as="geometry" />
        </mxCell>
        <mxCell id="8Lt88kE6l_gtZ_EHlqUN-91" value="strcpy(state_info-&gt;reference_checksum, state_info-&gt;uart_buffer);" style="rounded=0;whiteSpace=wrap;html=1;" vertex="1" parent="1">
          <mxGeometry x="75" y="250" width="220" height="60" as="geometry" />
        </mxCell>
        <mxCell id="8Lt88kE6l_gtZ_EHlqUN-101" style="edgeStyle=orthogonalEdgeStyle;rounded=0;orthogonalLoop=1;jettySize=auto;html=1;exitX=0.5;exitY=1;exitDx=0;exitDy=0;entryX=0.5;entryY=0;entryDx=0;entryDy=0;endArrow=none;endFill=0;" edge="1" parent="1" source="8Lt88kE6l_gtZ_EHlqUN-93" target="8Lt88kE6l_gtZ_EHlqUN-94">
          <mxGeometry relative="1" as="geometry" />
        </mxCell>
        <mxCell id="8Lt88kE6l_gtZ_EHlqUN-93" value="форматирование эталонной контрольной суммы" style="rounded=0;whiteSpace=wrap;html=1;" vertex="1" parent="1">
          <mxGeometry x="75" y="330" width="220" height="60" as="geometry" />
        </mxCell>
        <mxCell id="8Lt88kE6l_gtZ_EHlqUN-102" style="edgeStyle=orthogonalEdgeStyle;rounded=0;orthogonalLoop=1;jettySize=auto;html=1;exitX=0.5;exitY=1;exitDx=0;exitDy=0;entryX=0.5;entryY=0;entryDx=0;entryDy=0;endArrow=none;endFill=0;" edge="1" parent="1" source="8Lt88kE6l_gtZ_EHlqUN-94" target="8Lt88kE6l_gtZ_EHlqUN-95">
          <mxGeometry relative="1" as="geometry" />
        </mxCell>
        <mxCell id="8Lt88kE6l_gtZ_EHlqUN-94" value="очистка буффера uart_buffer" style="rounded=0;whiteSpace=wrap;html=1;" vertex="1" parent="1">
          <mxGeometry x="75" y="410" width="220" height="60" as="geometry" />
        </mxCell>
        <mxCell id="8Lt88kE6l_gtZ_EHlqUN-117" style="edgeStyle=orthogonalEdgeStyle;rounded=0;orthogonalLoop=1;jettySize=auto;html=1;exitX=0.5;exitY=1;exitDx=0;exitDy=0;endArrow=none;endFill=0;" edge="1" parent="1" source="8Lt88kE6l_gtZ_EHlqUN-95" target="8Lt88kE6l_gtZ_EHlqUN-115">
          <mxGeometry relative="1" as="geometry" />
        </mxCell>
        <mxCell id="8Lt88kE6l_gtZ_EHlqUN-95" value="state_info-&gt;state_request = EXECUTE;" style="rounded=0;whiteSpace=wrap;html=1;" vertex="1" parent="1">
          <mxGeometry x="75" y="510" width="220" height="60" as="geometry" />
        </mxCell>
        <mxCell id="8Lt88kE6l_gtZ_EHlqUN-106" value="да" style="edgeStyle=orthogonalEdgeStyle;rounded=0;orthogonalLoop=1;jettySize=auto;html=1;exitX=1;exitY=0.5;exitDx=0;exitDy=0;entryX=0;entryY=0.5;entryDx=0;entryDy=0;endArrow=none;endFill=0;" edge="1" parent="1" source="8Lt88kE6l_gtZ_EHlqUN-96" target="8Lt88kE6l_gtZ_EHlqUN-104">
          <mxGeometry relative="1" as="geometry" />
        </mxCell>
        <mxCell id="8Lt88kE6l_gtZ_EHlqUN-108" value="нет" style="edgeStyle=orthogonalEdgeStyle;rounded=0;orthogonalLoop=1;jettySize=auto;html=1;exitX=0.5;exitY=1;exitDx=0;exitDy=0;entryX=0.5;entryY=0;entryDx=0;entryDy=0;endArrow=none;endFill=0;" edge="1" parent="1" source="8Lt88kE6l_gtZ_EHlqUN-96" target="8Lt88kE6l_gtZ_EHlqUN-97">
          <mxGeometry relative="1" as="geometry" />
        </mxCell>
        <mxCell id="8Lt88kE6l_gtZ_EHlqUN-96" value="strcmp(state_info-&gt;uart_buffer, &quot;NEXT\r&quot;) == 0" style="rhombus;whiteSpace=wrap;html=1;" vertex="1" parent="1">
          <mxGeometry x="710" y="240" width="210" height="80" as="geometry" />
        </mxCell>
        <mxCell id="8Lt88kE6l_gtZ_EHlqUN-114" value="нет" style="edgeStyle=orthogonalEdgeStyle;rounded=0;orthogonalLoop=1;jettySize=auto;html=1;exitX=0.5;exitY=1;exitDx=0;exitDy=0;entryX=0.5;entryY=0;entryDx=0;entryDy=0;endArrow=none;endFill=0;" edge="1" parent="1" source="8Lt88kE6l_gtZ_EHlqUN-97" target="8Lt88kE6l_gtZ_EHlqUN-113">
          <mxGeometry relative="1" as="geometry" />
        </mxCell>
        <mxCell id="8Lt88kE6l_gtZ_EHlqUN-118" value="да" style="edgeStyle=orthogonalEdgeStyle;rounded=0;orthogonalLoop=1;jettySize=auto;html=1;exitX=0;exitY=0.5;exitDx=0;exitDy=0;entryX=1;entryY=0.5;entryDx=0;entryDy=0;endArrow=none;endFill=0;" edge="1" parent="1" source="8Lt88kE6l_gtZ_EHlqUN-97" target="8Lt88kE6l_gtZ_EHlqUN-109">
          <mxGeometry relative="1" as="geometry" />
        </mxCell>
        <mxCell id="8Lt88kE6l_gtZ_EHlqUN-97" value="strcmp(state_info-&amp;gt;uart_buffer, &quot;PREV\r&quot;) == 0" style="rhombus;whiteSpace=wrap;html=1;" vertex="1" parent="1">
          <mxGeometry x="710" y="350" width="210" height="80" as="geometry" />
        </mxCell>
        <mxCell id="8Lt88kE6l_gtZ_EHlqUN-119" style="edgeStyle=orthogonalEdgeStyle;rounded=0;orthogonalLoop=1;jettySize=auto;html=1;exitX=0.5;exitY=1;exitDx=0;exitDy=0;entryX=0.5;entryY=0;entryDx=0;entryDy=0;endArrow=none;endFill=0;" edge="1" parent="1" source="8Lt88kE6l_gtZ_EHlqUN-104" target="8Lt88kE6l_gtZ_EHlqUN-113">
          <mxGeometry relative="1" as="geometry">
            <Array as="points">
              <mxPoint x="1080" y="490" />
              <mxPoint x="815" y="490" />
            </Array>
          </mxGeometry>
        </mxCell>
        <mxCell id="8Lt88kE6l_gtZ_EHlqUN-104" value="set_next_algo(state_info);" style="rounded=0;whiteSpace=wrap;html=1;" vertex="1" parent="1">
          <mxGeometry x="970" y="250" width="220" height="60" as="geometry" />
        </mxCell>
        <mxCell id="8Lt88kE6l_gtZ_EHlqUN-120" style="edgeStyle=orthogonalEdgeStyle;rounded=0;orthogonalLoop=1;jettySize=auto;html=1;exitX=0.5;exitY=1;exitDx=0;exitDy=0;entryX=0.5;entryY=0;entryDx=0;entryDy=0;endArrow=none;endFill=0;" edge="1" parent="1" source="8Lt88kE6l_gtZ_EHlqUN-109" target="8Lt88kE6l_gtZ_EHlqUN-113">
          <mxGeometry relative="1" as="geometry">
            <Array as="points">
              <mxPoint x="560" y="490" />
              <mxPoint x="815" y="490" />
            </Array>
          </mxGeometry>
        </mxCell>
        <mxCell id="8Lt88kE6l_gtZ_EHlqUN-109" value="set_prev_algo(state_info);" style="rounded=0;whiteSpace=wrap;html=1;" vertex="1" parent="1">
          <mxGeometry x="450" y="360" width="220" height="60" as="geometry" />
        </mxCell>
        <mxCell id="8Lt88kE6l_gtZ_EHlqUN-116" style="edgeStyle=orthogonalEdgeStyle;rounded=0;orthogonalLoop=1;jettySize=auto;html=1;exitX=0.5;exitY=1;exitDx=0;exitDy=0;entryX=0.5;entryY=0;entryDx=0;entryDy=0;endArrow=none;endFill=0;" edge="1" parent="1" source="8Lt88kE6l_gtZ_EHlqUN-113" target="8Lt88kE6l_gtZ_EHlqUN-115">
          <mxGeometry relative="1" as="geometry" />
        </mxCell>
        <mxCell id="8Lt88kE6l_gtZ_EHlqUN-113" value="Вывод сообщения-подсказки" style="shape=parallelogram;perimeter=parallelogramPerimeter;whiteSpace=wrap;html=1;fixedSize=1;" vertex="1" parent="1">
          <mxGeometry x="717.5" y="510" width="195" height="60" as="geometry" />
        </mxCell>
        <mxCell id="8Lt88kE6l_gtZ_EHlqUN-115" value="конец" style="ellipse;whiteSpace=wrap;html=1;" vertex="1" parent="1">
          <mxGeometry x="415" y="640" width="120" height="40" as="geometry" />
        </mxCell>
      </root>
    </mxGraphModel>
  </diagram>
</mxfile>
